<?xml version="1.0" encoding="utf-8" standalone="no"?>

<svg height="101.00px" version="1.1" width="290.00px" xmlns="http://www.w3.org/2000/svg"><path d="M0 99.5 C0 99.5 2.61 94.25 7.17 86.94 C9.45 83.29 12.21 79.12 15.37 74.84 C18.57 70.51 22.32 65.92 26.01 62.01 C41.49 45.59 62.68 33.03 83.62 51.52 C102.75 68.4 103.23 58.83 106.12 44.91 C109 31.01 114.02 13.7 142.62 21.5 C169.94 28.95 184.92 20.26 197.49 15.81 C210.53 11.19 220.64 11.52 237.21 37.02 C245.48 49.75 250.49 50.16 253.99 46.97 C258.11 43.22 261.08 34.08 263.97 24.57 C266.78 15.36 269.52 5.71 273.4 1.89 C278.12 -2.76 283.47 1.12 289.99 14.08 L288.2 14.98 C281.24 1.13 277.37 0.79 274.8 3.31 C271.39 6.67 268.79 15.6 265.89 25.15 C263.07 34.41 259.96 44.24 255.33 48.45 C250.09 53.23 243.66 50.62 235.54 38.11 C219.31 13.15 210.08 13.48 198.16 17.7 C185.76 22.09 170.13 31.08 142.1 23.43 C115.35 16.14 110.92 31.61 108.08 45.32 C105.23 59.01 103.68 71.89 82.3 53.02 C62.73 35.75 42.88 47.03 27.46 63.38 C24.34 66.7 19.69 72.36 16.98 76.03 C13.85 80.26 11.12 84.39 8.87 88 C4.37 95.21 1.79 100.39 1.79 100.39 L0 99.5" fill="black" stroke="black" stroke-opacity="1" stroke-width="0"/></svg>