<svg xmlns="http://www.w3.org/2000/svg" viewBox="0 0 227.29 227.29"><defs><style>.a,.b{fill:none;}.a{stroke:#fff;stroke-linejoin:round;stroke-width:4.02px;}</style></defs><path class="a" d="M77.61,118.73a25.06,25.06,0,0,1,20.63-3.19q23-21.75,40-38.61V51.83H93.93V114s0,0,0,0C89.23,99.3,82.62,81,72.75,68.8A72.6,72.6,0,0,0,54.43,52.25a38.21,38.21,0,0,0-11.81-5,37.27,37.27,0,0,0-5.83-.54c-1.94,0-4.28.22-5.1,1.9a2.89,2.89,0,0,0,.59,3.18,19.44,19.44,0,0,0,3.27,3.06,10.81,10.81,0,0,0,5.22,1.93c.59.11,1.15.2,1.68.34,2.35.59,4.71,1.45,6.11,3.67a4.27,4.27,0,0,0,2.16,1.73c2.24.69,4.06,2.13,6.2,3.94.76.64,1.5,1.31,2.24,2a46.13,46.13,0,0,0,5,4.08,26.5,26.5,0,0,1,7.52,7.93c1.29,2,2.51,4.21,3.68,6.31L76.08,88a26.73,26.73,0,0,1,2.08,4.09c.83,2.24,1.52,4.6,2.2,6.88.3,1,.6,2,.91,3l0,.17a5.89,5.89,0,0,0,.41,1.07c.26.51.53,1,.81,1.52s.63,1.16.91,1.73a67.1,67.1,0,0,0-5.24-5.92A93.88,93.88,0,0,0,62.85,88.12c-1.69-1.11-3.42-2.36-5.09-3.57a73.59,73.59,0,0,0-11.13-7.06,53.26,53.26,0,0,0-11.74-4.27l-.55-.12a21,21,0,0,0-4.2-.63,4.66,4.66,0,0,0-1.91.35,4.45,4.45,0,0,0-2.77,3.53,3.38,3.38,0,0,0,1.86,3.09c.71.42,1.44.78,2.15,1.13.51.25,1,.5,1.53.78,3.13,1.72,6.51,3.32,9.77,4.87,7.51,3.57,15.28,7.26,21.1,12.72a109,109,0,0,1,13,14.06A12.24,12.24,0,0,1,77.61,118.73Z" transform="translate(0 0.26)"/><path class="a" d="M164.3,95.28a37.92,37.92,0,0,0-6.84.61c-8.24,5.34-14.87,10.18-26.07,18.8-2.68,2.06-8.38,7.84-13,12.49l-3.53,3.58a25.16,25.16,0,0,1-21,34V182.1h44.26V124.81q3.8-3.36,7.59-3.36,8.35,0,8.36,10.87V182.1h41.77V127.75q0-15.31-8.48-23.89T164.3,95.28Z" transform="translate(0 0.26)"/><path class="a" d="M66.27,139.73a25,25,0,0,1,3.66-13.06l-.43-.35a100.6,100.6,0,0,1-14.75-13.44,62.09,62.09,0,0,1-4-5,65.7,65.7,0,0,0-4.39-5.47,26.91,26.91,0,0,0-19.08-8.28,21.87,21.87,0,0,0-7.53,1.3c-1.07.39-3.9,1.43-3.73,3.73.19,2.62,4,3.85,11.82,5.49.9.18,1.68.34,2,.44,9.54,2.71,16.25,8.13,21.75,17.59.5.86,1,1.74,1.49,2.61a65.85,65.85,0,0,0,6,9.38c1.69,2.08,4.57,4.05,7.12,5.78l0,0C66.28,140.24,66.27,140,66.27,139.73Z" transform="translate(0 0.26)"/><path class="a" d="M79.58,161.9l-.46.32a22.91,22.91,0,0,1-9.4,1.95,59.72,59.72,0,0,1-12.6-1.88l-1.66-.36a76.6,76.6,0,0,0-14.61-2c-4.38,0-7,1-8.14,3a2.74,2.74,0,0,0,0,2.74c1.27,2.29,5.8,3,13.19,3.34l1.17.06a170.82,170.82,0,0,1,17.84,2.51c-2.12,1.21-5.55,1.41-8.9,1.62-4.55.27-8.85.53-11.32,3.1L43.4,177.6l1.37,1.21a10.83,10.83,0,0,0,5.62,2.33,13.38,13.38,0,0,1,2.84.74,5.51,5.51,0,0,1,.56.51,3.94,3.94,0,0,0,2.59,1.44h0c2,0,4.35-2,6.79-4a22.05,22.05,0,0,1,3.37-2.53q8.35-3.93,16.68-7.91l2.11-1,.09,0c.84-.46,1.25-.71,1.56-.91L90.83,165l-.94-.16A24.94,24.94,0,0,1,79.58,161.9Z" transform="translate(0 0.26)"/><path class="a" d="M67.29,146.81a3.3,3.3,0,0,1-1.89.5c-2.29,0-5.25-1.33-7.86-2.51a34.86,34.86,0,0,0-3.83-1.56l-1.55-.48c-4.6-1.43-8.95-2.77-14.21-2.82h-.68c-5.37-.05-10-.09-15.05-1.47-1.85-.51-3.73-1.21-5.72-2a51.48,51.48,0,0,0-9-2.72l-2.61-.43.63,2.57c.1.42.19.84.28,1.26.5,2.29,1,4.66,3.24,6.34s6.2,2.47,8.86,3l.31.06a128,128,0,0,0,13.11,1.76c2.72.27,5.53.54,8.23.93,6.7,1,13.75,2.13,19.91,4.34a6.24,6.24,0,0,1,2.24,1.44,7.11,7.11,0,0,0,3,1.78,5.56,5.56,0,0,0,1.48.19h0a12.41,12.41,0,0,0,3.36-.62,9.65,9.65,0,0,1,2.4-.49h.36A25.05,25.05,0,0,1,67.29,146.81Z" transform="translate(0 0.26)"/><path class="a" d="M191.62,36.17c-2.75,0-6.55,2.3-11.51,8.11C157.31,71,105.36,119.54,100,124.73a17.3,17.3,0,1,0,5.17,4.53c4.22-3.76,16.35-16.87,21.45-20.8,22.42-17.26,26.81-19.62,61-40.1C198.2,62,200.83,36.17,191.62,36.17Z" transform="translate(0 0.26)"/><circle class="b" cx="113.64" cy="113.64" r="113.64"/></svg>