<svg xmlns="http://www.w3.org/2000/svg" viewBox="0 0 193.43 148.91"><defs><style>.cls-1{fill:none;stroke:#fff;stroke-linejoin:round;stroke-width:2px;}</style></defs><g id="Capa_2" data-name="Capa 2"><path class="cls-1" d="M98,121.57a24.84,24.84,0,0,1,13.72-4.12,25.21,25.21,0,0,1,6.81.94Q141.37,96.76,158.29,80V55h-44v61.81s0,0,0,0C109.57,102.24,103,84.06,93.17,71.89A72.05,72.05,0,0,0,75,55.42a38,38,0,0,0-11.75-5,37.45,37.45,0,0,0-5.8-.53c-1.94,0-4.26.21-5.07,1.89a2.85,2.85,0,0,0,.58,3.16,19.22,19.22,0,0,0,3.25,3,10.69,10.69,0,0,0,5.2,1.92c.58.11,1.14.2,1.67.34,2.33.59,4.69,1.44,6.08,3.65a4.17,4.17,0,0,0,2.15,1.72c2.22.69,4,2.12,6.16,3.92.76.64,1.49,1.31,2.23,2a45.61,45.61,0,0,0,4.94,4.06,26.37,26.37,0,0,1,7.49,7.89c1.29,2,2.49,4.19,3.66,6.28l.75,1.3a27.89,27.89,0,0,1,2.07,4.07c.82,2.23,1.51,4.58,2.18,6.85.3,1,.6,2,.91,3l0,.16a5.53,5.53,0,0,0,.4,1.07c.26.51.54,1,.81,1.51s.63,1.16.91,1.72a68,68,0,0,0-5.21-5.89A94,94,0,0,0,83.32,91.11c-1.68-1.11-3.4-2.35-5.06-3.55a72.39,72.39,0,0,0-11.08-7,52.63,52.63,0,0,0-11.67-4.25L55,76.17a20.87,20.87,0,0,0-4.18-.62,4.65,4.65,0,0,0-1.9.34,4.41,4.41,0,0,0-2.75,3.51A3.36,3.36,0,0,0,48,82.48c.71.41,1.44.77,2.14,1.12.51.25,1,.5,1.52.78,3.12,1.7,6.48,3.3,9.72,4.84,7.48,3.55,15.21,7.22,21,12.66a109.24,109.24,0,0,1,12.91,14A12.12,12.12,0,0,1,98,121.57Z" transform="translate(-24.61 -38.43)"/><path class="cls-1" d="M184.26,98.24a38.32,38.32,0,0,0-6.8.6c-8.21,5.31-14.8,10.13-25.94,18.7-2.67,2.06-8.34,7.81-12.9,12.44l-3.51,3.55a25.11,25.11,0,0,1,1.63,8.93,25,25,0,0,1-22.5,24.88v17.27h44.05v-57q3.77-3.34,7.54-3.34,8.32,0,8.32,10.81v49.52h41.56V130.54q0-15.22-8.43-23.77T184.26,98.24Z" transform="translate(-24.61 -38.43)"/><path class="cls-1" d="M86.72,142.46a24.84,24.84,0,0,1,3.65-13l-.43-.35a99.63,99.63,0,0,1-14.68-13.38,61.83,61.83,0,0,1-3.94-4.94A64.64,64.64,0,0,0,67,105.36a26.72,26.72,0,0,0-19-8.24,21.7,21.7,0,0,0-7.5,1.3c-1.06.39-3.88,1.42-3.71,3.71.19,2.6,3.94,3.83,11.76,5.45.9.19,1.67.35,2,.45,9.49,2.69,16.16,8.09,21.64,17.49.5.87,1,1.74,1.48,2.61a66,66,0,0,0,6,9.32c1.68,2.07,4.54,4,7.07,5.76l0,0C86.74,143,86.72,142.72,86.72,142.46Z" transform="translate(-24.61 -38.43)"/><path class="cls-1" d="M100,164.52l-.46.32a22.85,22.85,0,0,1-9.36,1.94,59.8,59.8,0,0,1-12.53-1.87L76,164.55c-2.26-.49-9.12-2-14.54-2-4.35,0-7,1-8.09,3a2.75,2.75,0,0,0,0,2.73c1.27,2.28,5.78,2.94,13.13,3.32l1.16.07a171.83,171.83,0,0,1,17.76,2.49c-2.12,1.2-5.53,1.41-8.86,1.61-4.53.27-8.81.53-11.26,3.09L64,180.14l1.36,1.2a10.87,10.87,0,0,0,5.6,2.32,14,14,0,0,1,2.82.74,6.63,6.63,0,0,1,.56.5,3.91,3.91,0,0,0,2.58,1.43h0c2,0,4.33-1.94,6.76-4A21.88,21.88,0,0,1,87,179.83q8.31-3.92,16.6-7.87l2.1-1,.09,0c.84-.46,1.24-.71,1.55-.91l3.81-2.44-.94-.15A24.86,24.86,0,0,1,100,164.52Z" transform="translate(-24.61 -38.43)"/><path class="cls-1" d="M87.74,149.51a3.28,3.28,0,0,1-1.88.5c-2.28,0-5.23-1.33-7.82-2.5A34.69,34.69,0,0,0,74.23,146l-1.54-.47c-4.58-1.42-8.91-2.76-14.14-2.81h-.68c-5.34,0-10-.09-15-1.47-1.84-.5-3.71-1.2-5.69-1.93a50.78,50.78,0,0,0-9-2.71l-2.59-.43.62,2.56c.1.42.2.84.29,1.25.49,2.28,1,4.64,3.21,6.31s6.17,2.46,8.82,3l.31.06a126.61,126.61,0,0,0,13,1.74c2.71.27,5.5.55,8.2.93,6.66.95,13.67,2.12,19.8,4.32a6.31,6.31,0,0,1,2.23,1.43,6.8,6.8,0,0,0,3,1.77,5.44,5.44,0,0,0,1.47.19h0a12.33,12.33,0,0,0,3.34-.61,9.59,9.59,0,0,1,2.39-.49h.36A25,25,0,0,1,87.74,149.51Z" transform="translate(-24.61 -38.43)"/><path class="cls-1" d="M211.44,39.43c-2.73,0-6.52,2.28-11.45,8.06-22.69,26.54-74.37,74.88-79.74,80a17.26,17.26,0,1,0,5.14,4.52c4.2-3.75,16.26-16.79,21.34-20.7C169,94.18,173.4,91.83,207.43,71.46,218,65.13,220.61,39.43,211.44,39.43Z" transform="translate(-24.61 -38.43)"/></g></svg>